<svg xmlns="http://www.w3.org/2000/svg" viewBox="15 0 421.8 170.1" width="412" height="170"><path fill="#ed1c24" d="M31.1 0h389.7v170.1H31.1z"/><path d="M79.8 53.4c24.3-9.1 51.8-15 79.9-10.9l2.9-5.3c5.8-.9 11.7-1.7 17.5-2.3l-7.8 11.9c7.6 3.3 13.9 11.3 14.6 19.7 0 11.4-5.1 20.9-10.9 29.7l8.5-1c5.7-9.3 21.7-20.5 28.3-12l2.3-3.2s10.5-1.6 10.7-1.6c-9.3 17.3-14.3 22-13.1 23.6 1.4 1.9 18.4-13.2 24.8-25.5l10.1-1.1-5.7 10.1c10.2-8.4 13.9-13.8 19.6-11.4 7.9 3.3-9.4 21.7-7.5 22.9 1.6 1 15.5-9.2 22.2-19.5l-9.5 1.5 3.3-6.2 9.4-1.2c10.2-18.8 37-54.7 45.2-49.4 7.6 4.9-10.7 28.7-34.7 45.9l-1.5 2.7 20.8-2.3c.4.2.6.9.1 1.3-6.7 5.7-19.9 19.6-13 23.9 6.1 2.2 15.6-11.9 16.5-14.8-5.4-1.7-1.1-16.8 6.6-14.8 5.2 1.8 1.3 9.2 0 12.1 9.9-1.2 18.8-11.3 18.8-11.3-.1-8 5-16.6 10.9-14.5 3.8 2 .7 7.7-5.6 14.4-.8.8-.4 3.9-.5 7.6 6.7-2.3 14.3-5.5 20.6-8.6.1-7.7 3.9-17 10.4-15.1 4.7 1.4 0 10.9-5.9 15.7-.1 10.3 1.6 17.1-1 22.5-3 6.2-13.4 11.4-19.6 7.8-6.4-3.7-.7-12 3.2-15.1 3.5-2.9 12.4-7 12.4-7s.5-3.5.3-5.2c-3.5 2.1-20.2 8.3-20.2 8.3-.7 6.1-.6 8.6-3.5 14.2-3.6 6.9-15.5 9.7-19.5 5.8-2.8-2.7-2-9.2 3.8-13.8 4.3-3.5 13.5-7.3 13.5-7.3s.8-3.5.5-4.9c-5.9 5.1-12.6 10.2-21.2 10.4-5.2 10.4-19.1 24.8-29 18.3-9.6-6.2 5.8-22.6 7.4-23.8-3.2.2-9.6 1.6-9.6 1.6l-16.9 31.3.2-.1s57.7-6.6 110.1-6.7l-6.3 5.9c3 2.1 6.1 4.2 9.3 6 0 0-54.6-2.4-117.5 2.8l-9.2 17.1-11.4.8 9.9-17.1s-28.6.9-91.4 9.4c.7-1.3.9-1.6 1.9-3.3 55.7-11.2 93.6-14 93.6-14s8.8-15.1 8.4-14.8c-5.5 4.6-17.7 14.4-22.8 9.6-3.7-4.6 9.2-19.3 7.7-20.5-1.2-1-16.5 14.7-22 23.3-3.1.2-8.9.9-8.9.9l4.4-8.6c-5 3.9-10.3 8.1-15.9 10.3-1.6.6-5.2.8-6.7-3.4 0 0-11.3 10.2-18.9 6.3-4.1-2.1-2.2-9.8-1.5-11.5l-9 1c-39 45.2-89.9 50.3-96 40.4-6.5-10.6 16.6-24.8 48.2-34.8 0 0 28.1-50.6 27.6-51-38.8-5.9-86.8 23.9-86.8 23.9l14.1-26zm14.7 81.5c4.6 5.8 42.7-.3 68.5-32.3-17.8 2.8-28.4 6.6-32.3 8-8.4 13.7-11.9 18.7-15.1 18.2-3.9-.5 2.3-7.9 5.6-15-14 4.6-30.9 15.7-26.7 21.1zm41.2-31.6c10-2.7 25.6-5.2 30.9-5.8 4.5-7.3 19.1-31.6-1.8-39.2l-29.1 45zM196 93.1c-3 4-6.2 10.7-3.8 12.6 2.5 1.9 9.3-4 11.6-6.9 3.9-5.1 7.1-12.1 4.7-13.4-3.8-2-10.4 4.9-12.5 7.7zm98.2-33.5c7.6-4.7 27-24 22.2-28.5-5-2.2-18.3 19.3-22.2 28.5zm34.6 22.9c-3.2 2.3-4.8 5.2-3.2 6.5 1.5 1.2 5.5-1.1 7.2-3.6 2.8-3.8 3.4-7.1 3.4-7.1s-2.5.6-7.4 4.2zm25.3-1.3c-1.1 1-5.2 4.7-3.4 6.5 1.5 1.6 6-1.1 7.8-3.2 2.4-2.9 3.6-7.5 3.6-7.5s-4.8 1.4-8 4.2z" fill="#fff"/><radialGradient id="a" cx="-2580.951" cy="-3762.833" r="537.484" fx="-2643.837" fy="-3693.368" gradientTransform="matrix(-.06887 .8294 .02923 .00413 354.203 2148.915)" gradientUnits="userSpaceOnUse"><stop offset="0" stop-color="#871518"/><stop offset=".135" stop-color="#881919" stop-opacity=".865"/><stop offset=".262" stop-color="#8c241e" stop-opacity=".738"/><stop offset=".385" stop-color="#933427" stop-opacity=".615"/><stop offset=".507" stop-color="#9e4938" stop-opacity=".493"/><stop offset=".627" stop-color="#ab6250" stop-opacity=".373"/><stop offset=".746" stop-color="#be8371" stop-opacity=".254"/><stop offset=".865" stop-color="#d5b0a2" stop-opacity=".135"/><stop offset=".98" stop-color="#f5ece8" stop-opacity=".02"/><stop offset="1" stop-color="#fff" stop-opacity="0"/></radialGradient><path fill="url(#a)" d="M420.7 0h31.1v170.1h-31.1z"/><radialGradient id="b" cx="-2237.327" cy="5977.293" r="537.484" fx="-2300.213" fy="6046.758" gradientTransform="matrix(.06887 .8294 -.02923 .00413 358.584 1823.64)" gradientUnits="userSpaceOnUse"><stop offset="0" stop-color="#871518"/><stop offset=".135" stop-color="#881919" stop-opacity=".865"/><stop offset=".262" stop-color="#8c241e" stop-opacity=".738"/><stop offset=".385" stop-color="#933427" stop-opacity=".615"/><stop offset=".507" stop-color="#9e4938" stop-opacity=".493"/><stop offset=".627" stop-color="#ab6250" stop-opacity=".373"/><stop offset=".746" stop-color="#be8371" stop-opacity=".254"/><stop offset=".865" stop-color="#d5b0a2" stop-opacity=".135"/><stop offset=".98" stop-color="#f5ece8" stop-opacity=".02"/><stop offset="1" stop-color="#fff" stop-opacity="0"/></radialGradient><path fill="url(#b)" d="M0 0h31.1v170.1H0z"/></svg>