<svg xmlns="http://www.w3.org/2000/svg" version="1.0" width="199" height="69"><path d="M133.412 0l-6.225 27.009h5.913L139.325 0h-5.912M146 19.13l-.162.781c6.062 1.253 9.812 3.613 9.812 6.324 0 4.019-8.638 7.279-19.738 7.279s-19.737-3.26-19.737-7.279c0-2.781 3.963-5.194 10.288-6.419l.175-.805v-.015c-8.326 1.302-14.163 4.3-14.163 7.797 0 4.687 10.5 8.488 23.438 8.488 12.937 0 23.424-3.801 23.424-8.488 0-3.382-5.45-6.298-13.337-7.663M19.338 67.969h-5.926L15.825 57.5H8.338L5.925 67.97H0l5.85-25.375h5.925l-2.287 9.912h7.487l2.287-9.912h5.925l-5.85 25.375m18.775-20.9c-2.037 0-3.037 1.036-4.162 2.885-.938 1.517-1.663 3.699-2.025 5.29-.725 3.181-1.762 8.25 2.425 8.25 2.025 0 3.362-1 4.462-2.886.95-1.554 1.626-3.663 2-5.327.425-1.85.738-4.032.388-5.733-.35-1.702-1.238-2.48-3.088-2.48zm-4.875 21.269c-3.45 0-5.6-1.183-6.95-3.995-1.25-2.626-1.3-5.918-.575-9.1 1.538-6.732 6-13.02 13.513-13.02 3.362 0 5.775 1.11 7.163 3.885 1.25 2.477 1.35 6.066.65 9.136-.663 2.886-2.25 6.4-4.425 8.803-2.626 2.886-5.938 4.29-9.376 4.29M58.15 47.515l-1.188 5.141h9.275l-1.1 4.771h-9.262l-1.288 5.623h11.85l-1.124 4.92H47.537l5.813-25.375h17.775L70 47.514H58.15m21.525-.408H82.6c1.113 0 2.85-.147 3.7.48.737.519 1.088 1.592.85 2.59-.25 1.11-1.038 2.294-2.138 2.885-1.212.629-2.525.518-3.75.518h-3.075l1.488-6.473zm-2.313 10.839h3.976l1.587 10.024h6.588L87.386 56.76c2.963-.999 5.238-3.661 5.9-6.546.563-2.479-.012-4.956-1.775-6.325-1.662-1.258-3.95-1.295-6.212-1.295H74.963L69.15 67.969h5.912l2.3-10.024m26.6-10.839h3.238c.987 0 2.575-.111 3.313.37.7.482.937 1.368.737 2.294-.2.85-.787 1.775-1.6 2.292-1.05.667-2.25.593-3.288.593h-3.674l1.275-5.549zm-5.037-4.512l-5.85 25.375h11.188c2.174 0 4.662 0 6.825-1.369 2.075-1.295 3.85-3.255 4.362-5.475.75-3.291-.838-5.696-3.838-6.325l.013-.074c2.813-.666 5.175-2.59 5.838-5.474.55-2.405-.088-4.255-1.838-5.548-1.475-1.11-3.55-1.11-5.55-1.11h-11.15zm2.725 14.573h4.012c.963 0 2.15 0 2.888.482.737.481 1.1 1.478.888 2.441-.238 1.035-.963 2.071-1.938 2.626-1.075.629-2.425.554-3.5.554h-3.75l1.4-6.103m61.025-9.653l-1.175 5.141h9.262l-1.1 4.771H160.4l-1.287 5.623h11.85l-1.125 4.92h-17.775l5.825-25.375h17.774l-1.137 4.92h-11.85m21.787-.408h2.763c1.1 0 2.838-.147 3.7.48.725.519 1.075 1.592.85 2.59-.263 1.11-1.05 2.294-2.15 2.885-1.213.629-2.512.518-3.738.518h-2.9l1.476-6.473zm-2.487 10.839h3.988l1.575 10.024h6.587L192 56.76c2.963-.999 5.238-3.661 5.9-6.546.575-2.479-.013-4.956-1.763-6.325-1.674-1.258-3.962-1.295-6.212-1.295h-10.338l-5.825 25.375h5.925l2.288-10.024m-30.25-7.166c.013-.132.013-.255.013-.384.274-5-2.488-8.131-7.563-8.294l-.1-.004-.313-.01-.112.002-.138-.003c-7.512 0-11.962 6.288-13.512 13.02-.3 1.318-.45 2.651-.463 3.951-.174 5.084 2.263 9.225 8.3 9.225.026 0 3.788.344 7.463-2.27 4.587-3.268 6.125-11.566 6.125-11.566l-6.138-.015h-4.8l-1.075 4.559h5.163c-.45 2.589-3 4.401-5.587 4.401-.288 0-.55-.027-.8-.072-2.175-.384-2.5-2.349-2.5-4.523.037-1.265.275-2.59.537-3.69a20.52 20.52 0 011.263-3.814c.862-1.85 1.762-3.542 3.524-4.172a4.424 4.424 0 011.513-.262c2.563 0 3.525 1.733 3.45 3.937h5.625l.125-.016m-28.063 17.19h-5.912l5.85-25.375h5.912l-5.85 25.375" fill="#075289"/><path d="M139.575 11.751L136.05 27.01h5.912l3.526-15.258h-5.913" fill="#8d172e"/></svg>