<svg xmlns="http://www.w3.org/2000/svg" xmlns:xlink="http://www.w3.org/1999/xlink" width="116.203" height="44.276" viewBox="0 0 30.745 11.715"><defs><clipPath id="a"><path d="M263.52 701.281h86.402v32.457H263.52zm0 0"/></clipPath></defs><path d="M.132 11.582h30.481V.132H.133zm0 0" fill="#fff"/><g transform="translate(-92.832 -247.264) scale(.35278)" clip-path="url(#a)"><path d="M348.328 720.988h-2.793v7.797h-4.875l.008-9.305c.07-.937.73-1.644 1.531-2.164 1.625-1.011 4.125-.539 6.13-.636zm-8.726 2.996h-4.98v-3.504h-.829v4.282h5.809v4.023s-5.059-.023-7.555-.023c-1.527-.239-3.176-1.344-3.531-2.946-.211-1.93-.235-4.027.023-5.933.094-1.274 1.063-2.402 2.238-2.848 2.426-.754 5.465-.777 7.653.563l.472.379c.801.777.61 1.836.707 2.894-.027 1.012-.008 3.113-.008 3.113m-15.386 4.801l-2.239-3.832v3.832h-4.882v-17.297h4.882v9.035l2.285-3.843h5.172l-3.39 5.91 3.418 6.195zm-7.864-7.797h-2.793v7.797h-4.843s-.051-6.289 0-9.304c0-1.293 1.316-2.165 2.398-2.563 1.555-.473 5.238-.238 5.238-.238zm-8.726 7.797l-8.95-.023c-1.007-.211-2.046-.824-2.519-1.817-.469-1.195-.61-2.754.121-3.882 1.297-1.625 5.578-1.274 5.578-1.274v3.313h.824v-4.196h-5.226v-4.148h7.207c1.035.023 2 .629 2.52 1.547.331.59.449 1.25.472 1.976zm-18.918-2.941v2.941h-6.89v-6.996h8.027v-5.625h-8.028v-4.676l8.336-.058c2.262-.047 4.406.777 5.582 2.8 1.297 2.52 1.485 6.313-.07 8.786-1.625 2.21-4.27 2.875-6.957 2.828m-25.188-24.563v15.68h25.418v4.027H263.52v12.75h86.399v-32.457zm0 0" fill="#211e1e"/></g><use height="100%" width="100%" xlink:href="#b" x="286.02" y="80.184" transform="translate(-171.073 -114.972) scale(.35278)" fill="#827361"/></svg>