<svg xmlns="http://www.w3.org/2000/svg" xmlns:xlink="http://www.w3.org/1999/xlink" viewBox="0 0 170 170" width="256" height="256"><defs><path d="M247.89 137.78c.11.29-.65 5.6-6.08 7.69-5.43 2.08-13.32.59-13.6-.14-.28-.73 4.58-7.11 10.01-9.2 5.44-2.08 9.56 1.36 9.67 1.65z" id="r"/><path d="M307.5 125v77.5h-40l12.98-12.23c10.65-10.04 13.56-25.81 7.21-38.99-1.7-3.5-5.92-12.26-12.69-26.28z" id="a"/><path d="M259 102.25c-.13.29-4.2 3.61-9.02 1.46-4.81-2.14-8.75-8.51-8.43-9.23.31-.71 7.69-2.05 12.5.1 4.82 2.14 5.07 7.39 4.95 7.67z" id="c"/><path d="M282.79 114.2c-.2.24-5.59 1.84-10.87-2.59-5.29-4.44-8.78-12.88-8.28-13.48.5-.59 9.42 1.38 14.7 5.82 5.29 4.43 4.65 10.02 4.45 10.25z" id="d"/><path d="M268.39 125.43c-.12-.28-4.33-3.54-9.45-1.26-5.12 2.28-9.41 8.81-9.1 9.52.32.71 8.05 1.89 13.17-.39 5.12-2.28 5.51-7.58 5.38-7.87z" id="e"/><path d="M243.83 111.58c0 .31-2.61 5-8.43 5s-12.65-4.22-12.65-5c0-.78 6.83-5 12.65-5s8.43 4.69 8.43 5z" id="f"/><path d="M304.24 109.88c-.31.04-5.38-2.38-6.34-9.21-.96-6.83 2.09-15.44 2.86-15.55.77-.11 6.08 7.33 7.04 14.16s-3.25 10.55-3.56 10.6z" id="g"/><path d="M306.79 80.57c-.31.05-5.31-1.83-6.1-7.47-.79-5.63 2.45-12.84 3.23-12.95.77-.11 5.88 5.92 6.67 11.56.79 5.64-3.49 8.82-3.8 8.86z" id="h"/><path d="M306.13 58.04c-.31.05-5.23-1.3-5.86-5.74-.62-4.43 2.83-10.24 3.6-10.34.77-.11 5.68 4.51 6.31 8.95.62 4.44-3.74 7.09-4.05 7.13z" id="i"/><path d="M295.52 118.45c-.29.13-6.1-1.39-9.5-9.02-3.39-7.64-3.53-18.31-2.82-18.63.72-.32 8.56 6.93 11.96 14.56 3.4 7.63.64 12.97.36 13.09z" id="j"/><path d="M272.35 90.11c-.26.19-5.76.58-9.58-4.67-3.82-5.26-4.88-13.9-4.25-14.36.63-.46 8.52 3.23 12.34 8.48 3.82 5.25 1.74 10.37 1.49 10.55z" id="k"/><path d="M289.97 85.66c-.28.13-5.97-.97-9.17-7.84-3.21-6.87-3.15-16.73-2.44-17.06.71-.33 8.3 5.96 11.5 12.83 3.2 6.87.4 11.94.11 12.07z" id="l"/><path d="M270.16 65.57c-.28.14-5.38.38-7.35-3.65-1.96-4.03-.48-10.62.22-10.96.7-.34 6.8 2.54 8.77 6.58 1.97 4.03-1.36 7.9-1.64 8.03z" id="m"/><path d="M250 80c-.17.26-4.4 3.11-8.12.69-3.72-2.42-5.79-8.79-5.37-9.45.43-.65 7.1-1.35 10.82 1.06 3.72 2.42 2.84 7.44 2.67 7.7z" id="n"/><path d="M236.47 96.58c-.11.29-3.72 3.89-7.83 2.23-4.12-1.66-7.37-7.53-7.07-8.25.29-.72 6.7-2.68 10.81-1.02 4.12 1.66 4.21 6.75 4.09 7.04z" id="o"/><path d="M290.52 56.48c-.28.14-5.35.58-7.44-3.33-2.08-3.92-.8-10.5-.11-10.87.69-.37 6.86 2.25 8.94 6.17 2.09 3.92-1.12 7.88-1.39 8.03z" id="p"/><path d="M274.18 138.46c-.16-.26-5.28-2.6-11.13 1.06-5.85 3.66-10.48 11.53-10.07 12.19.41.66 9.52-.05 15.37-3.71s6-9.27 5.83-9.54z" id="q"/><path d="M273.88 120.52c-.13.28-4.87 3.3-11.17.5-6.3-2.81-11.99-9.96-11.67-10.67.32-.72 9.44-1.27 15.74 1.53 6.3 2.81 7.23 8.35 7.1 8.64z" id="b"/><path d="M235.06 125.39c.1.3-.26 5.38-4.46 6.83-4.19 1.44-10.49-.85-10.75-1.59-.25-.74 3.3-6.42 7.5-7.87 4.19-1.44 7.61 2.34 7.71 2.63z" id="s"/><path d="M317.14 85.63c.28.13 5.97-.98 9.17-7.85 3.21-6.87 3.14-16.72 2.44-17.05-.71-.33-8.3 5.95-11.5 12.82-3.21 6.87-.4 11.94-.11 12.08z" id="t"/><path d="M299.61 124.96v77.5h40c-6.93-6.52-11.25-10.6-12.99-12.23-10.64-10.03-13.56-25.81-7.2-38.99l12.69-26.28z" id="u"/><path d="M348.11 102.22c.13.28 4.2 3.6 9.01 1.46 4.82-2.15 8.76-8.52 8.44-9.23-.32-.72-7.69-2.05-12.5.09-4.82 2.14-5.08 7.39-4.95 7.68z" id="v"/><path d="M324.32 114.17c.2.24 5.59 1.83 10.87-2.6 5.29-4.43 8.78-12.87 8.28-13.47-.5-.6-9.42 1.38-14.71 5.81-5.28 4.43-4.64 10.02-4.44 10.26z" id="w"/><path d="M338.71 125.4c.13-.29 4.34-3.55 9.46-1.27 5.12 2.28 9.41 8.81 9.09 9.52-.31.72-8.04 1.9-13.16-.38-5.12-2.28-5.51-7.59-5.39-7.87z" id="x"/><path d="M363.28 111.54c0 .32 2.61 5 8.43 5s12.65-4.21 12.65-5c0-.78-6.83-5-12.65-5s-8.43 4.69-8.43 5z" id="y"/><path d="M311.59 118.42c.29.12 6.1-1.4 9.49-9.03 3.4-7.63 3.54-18.31 2.82-18.63-.71-.32-8.55 6.93-11.95 14.56-3.4 7.63-.64 12.97-.36 13.1z" id="z"/><path d="M334.76 90.08c.25.18 5.76.57 9.58-4.68 3.81-5.25 4.88-13.9 4.25-14.36-.63-.46-8.53 3.23-12.34 8.48-3.82 5.26-1.74 10.37-1.49 10.56z" id="A"/><path d="M333.23 120.48c.12.29 4.86 3.31 11.17.5 6.3-2.81 11.98-9.96 11.67-10.67-.32-.71-9.44-1.27-15.74 1.53-6.3 2.81-7.23 8.35-7.1 8.64z" id="B"/><path d="M336.95 65.54c.28.13 5.38.38 7.35-3.66 1.96-4.03.48-10.61-.22-10.96-.7-.34-6.81 2.55-8.77 6.58-1.97 4.03 1.36 7.9 1.64 8.04z" id="C"/><path d="M357.11 79.96c.17.27 4.39 3.11 8.12.69 3.72-2.41 5.79-8.79 5.36-9.44-.42-.66-7.09-1.36-10.81 1.06-3.72 2.41-2.84 7.43-2.67 7.69z" id="D"/><path d="M370.63 96.55c.12.29 3.73 3.89 7.84 2.22 4.11-1.66 7.37-7.52 7.07-8.25-.29-.72-6.7-2.68-10.82-1.02-4.11 1.66-4.2 6.76-4.09 7.05z" id="E"/><path d="M316.59 56.44c.28.15 5.35.59 7.43-3.33 2.09-3.92.81-10.5.12-10.87-.69-.36-6.86 2.26-8.95 6.17-2.08 3.92 1.12 7.88 1.4 8.03z" id="F"/><path d="M332.93 138.42c.16-.26 5.28-2.59 11.13 1.06 5.85 3.66 10.48 11.53 10.07 12.19-.42.66-9.52-.05-15.37-3.71-5.85-3.65-6-9.27-5.83-9.54z" id="G"/><path d="M359.22 137.74c-.11.29.65 5.61 6.08 7.69 5.43 2.09 13.32.59 13.6-.13.28-.73-4.59-7.12-10.02-9.21-5.43-2.08-9.55 1.36-9.66 1.65z" id="H"/><path d="M372.05 125.36c-.1.29.26 5.37 4.45 6.82 4.2 1.44 10.5-.85 10.75-1.59.26-.74-3.29-6.42-7.49-7.87-4.2-1.44-7.61 2.34-7.71 2.64z" id="I"/></defs><g visibility="inherit" transform="translate(-219.323 -33)"><use xlink:href="#a" width="100%" height="100%" fill="#dba72e"/><use xlink:href="#a" width="100%" height="100%" fill-opacity="0" stroke="#dba72e"/><use xlink:href="#b" width="100%" height="100%" fill="#dba72e"/><use xlink:href="#b" width="100%" height="100%" fill-opacity="0" stroke="#dba72e"/><use xlink:href="#c" width="100%" height="100%" fill="#dba72e"/><use xlink:href="#c" width="100%" height="100%" fill-opacity="0" stroke="#dba72e"/><use xlink:href="#d" width="100%" height="100%" fill="#dba72e"/><use xlink:href="#d" width="100%" height="100%" fill-opacity="0" stroke="#dba72e"/><use xlink:href="#e" width="100%" height="100%" fill="#dba72e"/><use xlink:href="#e" width="100%" height="100%" fill-opacity="0" stroke="#dba72e"/><use xlink:href="#f" width="100%" height="100%" fill="#dba72e"/><use xlink:href="#f" width="100%" height="100%" fill-opacity="0" stroke="#dba72e"/><use xlink:href="#g" width="100%" height="100%" fill="#dba72e"/><use xlink:href="#g" width="100%" height="100%" fill-opacity="0" stroke="#dba72e"/><use xlink:href="#h" width="100%" height="100%" fill="#dba72e"/><use xlink:href="#h" width="100%" height="100%" fill-opacity="0" stroke="#dba72e"/><use xlink:href="#i" width="100%" height="100%" fill="#dba72e"/><use xlink:href="#i" width="100%" height="100%" fill-opacity="0" stroke="#dba72e"/><use xlink:href="#j" width="100%" height="100%" fill="#dba72e"/><use xlink:href="#j" width="100%" height="100%" fill-opacity="0" stroke="#dba72e"/><use xlink:href="#k" width="100%" height="100%" fill="#dba72e"/><use xlink:href="#k" width="100%" height="100%" fill-opacity="0" stroke="#dba72e"/><use xlink:href="#l" width="100%" height="100%" fill="#dba72e"/><use xlink:href="#l" width="100%" height="100%" fill-opacity="0" stroke="#dba72e"/><use xlink:href="#m" width="100%" height="100%" fill="#dba72e"/><use xlink:href="#m" width="100%" height="100%" fill-opacity="0" stroke="#dba72e"/><use xlink:href="#n" width="100%" height="100%" fill="#dba72e"/><use xlink:href="#o" width="100%" height="100%" fill="#dba72e"/><use xlink:href="#o" width="100%" height="100%" fill-opacity="0" stroke="#dba72e"/><use xlink:href="#p" width="100%" height="100%" fill="#dba72e"/><use xlink:href="#p" width="100%" height="100%" fill-opacity="0" stroke="#dba72e"/><use xlink:href="#q" width="100%" height="100%" fill="#dba72e"/><use xlink:href="#q" width="100%" height="100%" fill-opacity="0" stroke="#dba72e"/><use xlink:href="#r" width="100%" height="100%" fill="#dba72e"/><use xlink:href="#r" width="100%" height="100%" fill-opacity="0" stroke="#dba72e"/><use xlink:href="#s" width="100%" height="100%" fill="#dba72e"/><use xlink:href="#s" width="100%" height="100%" fill-opacity="0" stroke="#dba72e"/><use xlink:href="#t" width="100%" height="100%" fill="#dba72e"/><use xlink:href="#t" width="100%" height="100%" fill-opacity="0" stroke="#dba72e"/><use xlink:href="#u" width="100%" height="100%" fill="#dba72e"/><use xlink:href="#u" width="100%" height="100%" fill-opacity="0" stroke="#dba72e"/><use xlink:href="#v" width="100%" height="100%" fill="#dba72e"/><use xlink:href="#v" width="100%" height="100%" fill-opacity="0" stroke="#dba72e"/><use xlink:href="#w" width="100%" height="100%" fill="#dba72e"/><use xlink:href="#w" width="100%" height="100%" fill-opacity="0" stroke="#dba72e"/><use xlink:href="#x" width="100%" height="100%" fill="#dba72e"/><use xlink:href="#x" width="100%" height="100%" fill-opacity="0" stroke="#dba72e"/><use xlink:href="#y" width="100%" height="100%" fill="#dba72e"/><use xlink:href="#y" width="100%" height="100%" fill-opacity="0" stroke="#dba72e"/><use xlink:href="#z" width="100%" height="100%" fill="#dba72e"/><use xlink:href="#z" width="100%" height="100%" fill-opacity="0" stroke="#dba72e"/><use xlink:href="#A" width="100%" height="100%" fill="#dba72e"/><use xlink:href="#A" width="100%" height="100%" fill-opacity="0" stroke="#dba72e"/><use xlink:href="#B" width="100%" height="100%" fill="#dba72e"/><use xlink:href="#B" width="100%" height="100%" fill-opacity="0" stroke="#dba72e"/><use xlink:href="#C" width="100%" height="100%" fill="#dba72e"/><use xlink:href="#C" width="100%" height="100%" fill-opacity="0" stroke="#dba72e"/><use xlink:href="#D" width="100%" height="100%" fill="#dba72e"/><use xlink:href="#E" width="100%" height="100%" fill="#dba72e"/><use xlink:href="#E" width="100%" height="100%" fill-opacity="0" stroke="#dba72e"/><use xlink:href="#F" width="100%" height="100%" fill="#dba72e"/><use xlink:href="#F" width="100%" height="100%" fill-opacity="0" stroke="#dba72e"/><use xlink:href="#G" width="100%" height="100%" fill="#dba72e"/><use xlink:href="#G" width="100%" height="100%" fill-opacity="0" stroke="#dba72e"/><use xlink:href="#H" width="100%" height="100%" fill="#dba72e"/><use xlink:href="#H" width="100%" height="100%" fill-opacity="0" stroke="#dba72e"/><use xlink:href="#I" width="100%" height="100%" fill="#dba72e"/><use xlink:href="#I" width="100%" height="100%" fill-opacity="0" stroke="#dba72e"/></g></svg>